# xmcd
#
# Track frame offsets: 
#        150
#        12227
#        24237
#        36629
#        50234
#        63695
#        77794
#        90342
#        103540
#        114192
#        125508
#        141162
#        156319
#        169253
#        180969
#        205333
#
# Disc length: 3141 seconds
#
# Revision: 0
# Processed by: cddbd v1.5.2PL0 Copyright (c) Steve Scherf et al.
# Submitted via: ExactAudioCopy v0.99pb5
#
DISCID=d70c4310
DTITLE=TMP - Blues and the city 3
DYEAR=1900
DGENRE=Blues
TTITLE0=R.B. blues - Ruth Brown
TTITLE1=My babe - Little Walter
TTITLE2=Dust my broom - Elmore James
TTITLE3=Every night - John Lee Hooker
TTITLE4=Man killing broad - Lonnie Johnson
TTITLE5=Black night - Charles Brown
TTITLE6=Baby don't do it - The "5" Royales
TTITLE7=I feel so bad - Chuck Willis
TTITLE8=The freeze - Albert Collins
TTITLE9=Bo Diddley - Bo Diddley
TTITLE10=How blue can you get - B.B. King
TTITLE11=Blow top blues - Dinah Washington
TTITLE12=I'll drown in my own tears - Sonny Thompson, Lula Reed
TTITLE13=Don't start me to talkin' - Sonny Boy Williamson
TTITLE14=I'd rather go blind (live) - Etta James
TTITLE15=The thrill is gone (live) - Eric Clapton, B.B. King
EXTD=
EXTT0=
EXTT1=
EXTT2=
EXTT3=
EXTT4=
EXTT5=
EXTT6=
EXTT7=
EXTT8=
EXTT9=
EXTT10=
EXTT11=
EXTT12=
EXTT13=
EXTT14=
EXTT15=
PLAYORDER=
